Patient4_TMGait_0pt4_03_left_41_GRF.mot
version=1
nRows=78
nColumns=19
inDegrees=no
endheader
time	F1x	F1y	F1z	M1x	M1y	M1z	F2x	F2y	F2z	M2x	M2y	M2z	EC1x	EC1y	EC1z	EC2x	EC2y	EC2z
54.3	17.0644	16.7507	0.42263	-3.7567	1.1575	19.4898	-36.5893	810.4854	-74.7326	294.8855	109.1351	1001.3027	-0.0592	0.0182	-0.0073	-0.0462	0.0165	0.9585
54.3134	11.4634	11.8178	0.30423	-2.7097	0.70631	13.8122	-36.3385	806.6365	-75.5115	292.4777	108.9689	993.6605	-0.0592	0.0182	-0.0073	-0.0462	0.0165	0.9585
54.3269	6.7238	7.679	0.20367	-1.8363	0.33285	9.0292	-35.8059	800.172	-75.7926	289.2097	108.082	982.761	-0.0592	0.0182	-0.0073	-0.0462	0.0165	0.9585
54.3403	3.1179	4.5754	0.1304	-1.1873	0.051866	5.4301	-34.9378	791.3135	-75.5773	285.2071	106.5119	968.9716	-0.0592	0.0182	-0.0073	-0.0462	0.0165	0.9585
54.3537	0.62404	2.4874	0.076894	-0.75579	-0.13707	2.9976	-33.7315	780.6996	-74.9489	280.7129	104.3903	953.0897	-0.0592	0.0182	-0.0073	-0.0462	0.0165	0.9585
54.3671	-0.91861	1.2439	0.048169	-0.49971	-0.26157	1.5384	-32.2156	769.1832	-74.0509	276.032	101.9103	936.1188	-0.0592	0.0182	-0.0073	-0.0462	0.0165	0.9585
54.3806	-1.7375	0.61087	0.034896	-0.36175	-0.34143	0.78858	-30.4703	757.6623	-73.0321	271.4765	99.2783	919.0961	-0.0592	0.0182	-0.0073	-0.0462	0.0165	0.9585
54.394	-2.0596	0.32615	0.045673	-0.28059	-0.40944	0.45249	-28.5923	746.9326	-72.0244	267.3181	96.6838	902.9318	-0.0592	0.0182	-0.0073	-0.0462	0.0165	0.9585
54.4074	-2.0951	0.14912	0.077362	-0.20458	-0.48655	0.25258	-26.6603	737.622	-71.1079	263.7674	94.2491	888.3307	-0.0592	0.0182	-0.0073	-0.0462	0.0165	0.9585
54.4209	-1.9965	-0.12447	0.14266	-0.082779	-0.59754	-0.071959	-24.7172	730.1454	-70.2969	260.9634	92.0048	875.7388	-0.0592	0.0182	-0.0073	-0.0462	0.0165	0.9585
54.4343	-1.8668	-0.66999	0.2295	0.13454	-0.73666	-0.74864	-22.7446	724.6748	-69.5536	258.9646	89.9018	865.3131	-0.0592	0.0182	-0.0073	-0.0462	0.0165	0.9585
54.4477	-1.771	-1.6169	0.33852	0.48861	-0.90698	-1.9434	-20.6719	721.1629	-68.8016	257.7524	87.8232	856.9507	-0.0592	0.0182	-0.0073	-0.0462	0.0165	0.9585
54.4611	-1.7146	-3.0386	0.44729	1.0015	-1.0786	-3.7563	-18.3816	719.412	-67.9817	257.2533	85.6474	850.3647	-0.0592	0.0182	-0.0073	-0.0462	0.0165	0.9585
54.4746	-1.68	-4.9236	0.53339	1.6674	-1.2094	-6.1611	-15.7254	719.1505	-67.0537	257.3635	83.2623	845.1883	-0.0592	0.0182	-0.0073	-0.0462	0.0165	0.9585
54.488	-1.5982	-7.1129	0.55532	2.4278	-1.2214	-8.9581	-12.5288	720.0744	-66.026	257.9585	80.5977	841.0375	-0.0592	0.0182	-0.0073	-0.0462	0.0165	0.9585
54.5014	-1.3804	-9.2242	0.46912	3.1485	-1.0267	-11.6702	-8.6156	721.8604	-64.9457	258.8983	77.6282	837.5363	-0.0592	0.0182	-0.0073	-0.0462	0.0165	0.9585
54.5149	-0.905	-10.5943	0.20778	3.5955	-0.50431	-13.456	-3.8884	724.1772	-63.9177	260.0314	74.4185	834.348	-0.0592	0.0182	-0.0073	-0.0462	0.0165	0.9585
54.5283	-0.029196	-10.1993	-0.29827	3.4071	0.48118	-13.0164	1.6064	726.6709	-63.0623	261.1932	71.104	831.1666	-0.0592	0.0182	-0.0073	-0.0462	0.0165	0.9585
54.5417	1.3867	-6.5988	-1.129	2.078	2.0755	-8.5251	7.6365	728.8856	-62.4959	262.1828	67.8886	827.6368	-0.0592	0.0182	-0.0073	-0.0462	0.0165	0.9585
54.5551	3.4639	2.0212	-2.3496	-1.0268	4.3949	2.3178	13.8264	730.2019	-62.252	262.7505	64.9495	823.2735	-0.0592	0.0182	-0.0073	-0.0462	0.0165	0.9585
54.5686	6.2255	17.728	-3.9725	-6.6256	7.4573	22.1437	19.7349	729.8143	-62.251	262.5979	62.3708	817.4186	-0.0592	0.0182	-0.0073	-0.0462	0.0165	0.9585
54.582	9.548	42.5161	-5.9175	-15.4042	11.1042	53.482	24.9262	726.6774	-62.2864	261.3642	60.1031	809.1431	-0.0592	0.0182	-0.0073	-0.0462	0.0165	0.9585
54.5954	13.0375	77.6982	-7.9424	-27.7969	14.875	97.9997	29.034	719.5224	-62.0863	258.625	58.0025	797.2321	-0.0592	0.0182	-0.0073	-0.0462	0.0165	0.9585
54.6089	15.9119	122.9782	-9.5865	-43.6614	17.8894	155.3423	31.8261	707.0243	-61.3534	253.9444	55.8479	780.3352	-0.0592	0.0182	-0.0073	-0.0462	0.0165	0.9585
54.6223	16.9138	175.2017	-10.072	-61.8373	18.7068	221.5514	33.2359	688.0684	-59.8385	246.9603	53.4023	757.2393	-0.0592	0.0182	-0.0073	-0.0462	0.0165	0.9585
54.6357	14.9732	227.6344	-8.3744	-79.9061	15.6845	288.1527	33.3641	662.0443	-57.3965	237.4824	50.4809	727.1933	-0.0592	0.0182	-0.0073	-0.0462	0.0165	0.9585
54.6491	10.883	273.2431	-3.8404	-95.4034	8.4013	346.1813	32.4552	629.1079	-54.0732	225.5803	47.057	690.21	-0.0592	0.0182	-0.0073	-0.0462	0.0165	0.9585
54.6626	5.83	310.6304	2.3478	-107.8755	-1.3075	393.6827	30.8347	590.2676	-50.1196	211.5969	43.287	647.2047	-0.0592	0.0182	-0.0073	-0.0462	0.0165	0.9585
54.676	0.92705	341.6372	9.4112	-118.0279	-12.0015	432.8226	28.8574	546.8236	-45.9871	195.97	39.505	599.4178	-0.0592	0.0182	-0.0073	-0.0462	0.0165	0.9585
54.6894	-3.2996	369.0034	16.3029	-126.8989	-22.21	467.0426	26.7926	500.0486	-41.9586	179.1343	35.8926	548.1096	-0.0592	0.0182	-0.0073	-0.0462	0.0165	0.9585
54.7029	-6.7052	395.1481	22.5971	-135.3818	-31.2783	499.3907	24.7978	451.0332	-38.0737	161.4799	32.4265	494.3818	-0.0592	0.0182	-0.0073	-0.0462	0.0165	0.9585
54.7163	-9.3667	421.6875	27.7639	-144.078	-38.6181	531.862	22.833	400.7458	-34.1901	143.3661	28.9678	439.27	-0.0592	0.0182	-0.0073	-0.0462	0.0165	0.9585
54.7297	-11.4002	449.5411	31.9076	-153.2978	-44.3634	565.6597	20.7798	350.048	-30.1914	125.1233	25.4327	383.711	-0.0592	0.0182	-0.0073	-0.0462	0.0165	0.9585
54.7431	-12.8084	479.2513	35.1673	-163.1984	-48.7382	601.4109	18.4332	299.878	-26.0399	107.1004	21.8475	328.7582	-0.0592	0.0182	-0.0073	-0.0462	0.0165	0.9585
54.7566	-13.6896	511.1168	38.1299	-173.8095	-52.4711	639.5524	15.6276	251.2328	-21.8521	89.6595	18.3816	275.5276	-0.0592	0.0182	-0.0073	-0.0462	0.0165	0.9585
54.77	-14.0761	544.9322	41.151	-185.0032	-56.0598	679.7927	12.3266	205.2229	-17.7951	73.1951	15.2199	225.2292	-0.0592	0.0182	-0.0073	-0.0462	0.0165	0.9585
54.7834	-14.2099	580.1234	44.7424	-196.5162	-60.184	721.4823	8.6423	163.0326	-14.0817	58.1145	12.541	179.1546	-0.0592	0.0182	-0.0073	-0.0462	0.0165	0.9585
54.7969	-14.292	615.994	48.9431	-208.0807	-64.9983	763.7673	4.9023	125.663	-10.8509	44.7654	10.3798	138.3477	-0.0592	0.0182	-0.0073	-0.0462	0.0165	0.9585
54.8103	-14.4033	651.888	53.7296	-219.4613	-70.4876	805.8631	1.4383	93.7622	-8.1784	33.3705	8.6937	103.5025	-0.0592	0.0182	-0.0073	-0.0462	0.0165	0.9585
54.8237	-14.5934	687.0503	58.6836	-230.4181	-76.1945	846.8604	-1.4194	67.5003	-6.0368	23.9884	7.3449	74.7699	-0.0592	0.0182	-0.0073	-0.0462	0.0165	0.9585
54.8371	-14.8218	720.3838	63.5749	-240.61	-81.8076	885.4312	-3.492	46.5962	-4.3521	16.5208	6.1995	51.8422	-0.0592	0.0182	-0.0073	-0.0462	0.0165	0.9585
54.8506	-15.096	750.6308	68.0642	-249.6556	-86.9371	920.0845	-4.7447	30.4655	-3.0223	10.7638	5.1427	34.1088	-0.0592	0.0182	-0.0073	-0.0462	0.0165	0.9585
54.864	-15.363	776.529	72.0157	-257.1783	-91.3854	949.3179	-5.1738	18.3831	-1.9688	6.462	4.1039	20.7811	-0.0592	0.0182	-0.0073	-0.0462	0.0165	0.9585
54.8774	-15.5868	797.0902	75.1992	-262.9003	-94.888	971.9628	-4.8975	9.7	-1.1418	3.378	3.0765	11.1792	-0.0592	0.0182	-0.0073	-0.0462	0.0165	0.9585
54.8909	-15.7207	811.6379	77.5295	-266.6531	-97.3266	987.24	-4.0731	3.7989	-0.52319	1.2924	2.1011	4.6083	-0.0592	0.0182	-0.0073	-0.0462	0.0165	0.9585
54.9043	-15.6699	819.9235	78.904	-268.4101	-98.5689	994.8579	-3.0548	0.18638	-0.099173	0.023107	1.277	0.54209	-0.0592	0.0182	-0.0073	-0.0462	0.0165	0.9585
54.9177	-15.3867	822.1355	79.3581	-268.2783	-98.6336	995.0845	-2.0653	-1.6889	0.1496	-0.62821	0.65572	-1.6102	-0.0592	0.0182	-0.0073	-0.0462	0.0165	0.9585
54.9311	-14.7833	818.8979	78.9377	-266.4972	-97.5592	988.6642	-1.2227	-2.3749	0.26276	-0.85601	0.23402	-2.4367	-0.0592	0.0182	-0.0073	-0.0462	0.0165	0.9585
54.9446	-13.8436	811.239	77.7834	-263.4184	-95.5025	976.8451	-0.60152	-2.324	0.2824	-0.82228	-0.010706	-2.4221	-0.0592	0.0182	-0.0073	-0.0462	0.0165	0.9585
54.958	-12.5721	800.4317	76.0558	-259.4598	-92.6616	961.1621	-0.16088	-1.8926	0.24281	-0.65183	-0.1248	-1.9806	-0.0592	0.0182	-0.0073	-0.0462	0.0165	0.9585
54.9714	-11.011	787.8361	73.9565	-255.0533	-89.2901	943.2551	0.10293	-1.297	0.17413	-0.42437	-0.14493	-1.3352	-0.0592	0.0182	-0.0073	-0.0462	0.0165	0.9585
54.9849	-9.2086	774.7787	71.7043	-250.6069	-85.662	924.7212	0.24775	-0.7081	0.09871	-0.1984	-0.1143	-0.68613	-0.0592	0.0182	-0.0073	-0.0462	0.0165	0.9585
54.9983	-7.2082	762.4234	69.4842	-246.4721	-82.0101	906.9513	0.30298	-0.18894	0.032087	0.00068001	-0.061802	-0.099865	-0.0592	0.0182	-0.0073	-0.0462	0.0165	0.9585
55.0117	-5.0921	751.7058	67.4496	-242.9232	-78.5339	891.0804	0.30407	0.24546	-0.023347	0.16507	-0.0046088	0.40778	-0.0592	0.0182	-0.0073	-0.0462	0.0165	0.9585
55.0251	-2.9241	743.2755	65.6695	-240.1457	-75.3393	877.8885	0.29017	0.57628	-0.064915	0.29019	0.043247	0.80611	-0.0592	0.0182	-0.0073	-0.0462	0.0165	0.9585
55.0386	-0.78887	737.4606	64.2034	-238.2246	-72.5199	867.7818	0.23762	0.83018	-0.094726	0.38397	0.090898	1.1381	-0.0592	0.0182	-0.0073	-0.0462	0.0165	0.9585
55.052	1.2568	734.2857	63.0333	-237.1554	-70.0804	860.7885	0.18685	1.0071	-0.11583	0.44873	0.13472	1.3793	-0.0592	0.0182	-0.0073	-0.0462	0.0165	0.9585
55.0654	3.1849	733.5598	62.1589	-236.8646	-68.0209	856.6717	0.11579	1.1156	-0.13425	0.48703	0.18761	1.5474	-0.0592	0.0182	-0.0073	-0.0462	0.0165	0.9585
55.0789	5.0274	734.9616	61.5223	-237.241	-66.2671	855.0142	0.027769	1.1248	-0.15284	0.48928	0.25365	1.5949	-0.0592	0.0182	-0.0073	-0.0462	0.0165	0.9585
55.0923	6.8214	738.0937	61.0945	-238.1497	-64.7641	855.3205	-0.073301	1.0085	-0.18323	0.44265	0.343	1.4698	-0.0592	0.0182	-0.0073	-0.0462	0.0165	0.9585
55.1057	8.6397	742.5295	60.8183	-239.4471	-63.4239	857.0503	-0.20589	0.73703	-0.23057	0.33046	0.46318	1.1292	-0.0592	0.0182	-0.0073	-0.0462	0.0165	0.9585
55.1191	10.5624	747.8593	60.6699	-240.9935	-62.1904	859.6957	-0.35486	0.22447	-0.29855	0.12167	0.61108	0.45929	-0.0592	0.0182	-0.0073	-0.0462	0.0165	0.9585
55.1326	12.6621	753.6701	60.6107	-242.6504	-60.9994	862.7553	-0.53868	-0.57666	-0.38033	-0.20474	0.77789	-0.58345	-0.0592	0.0182	-0.0073	-0.0462	0.0165	0.9585
55.146	14.9879	759.5345	60.6222	-244.2788	-59.8186	865.7309	-0.70088	-1.7168	-0.4664	-0.6672	0.93199	-2.0745	-0.0592	0.0182	-0.0073	-0.0462	0.0165	0.9585
55.1594	17.5457	765.0334	60.6747	-245.7452	-58.621	868.1753	-0.79994	-3.1897	-0.53408	-1.262	1.026	-4.0012	-0.0592	0.0182	-0.0073	-0.0462	0.0165	0.9585
55.1729	20.3207	769.7295	60.7575	-246.9103	-57.4135	869.643	-0.75377	-4.9075	-0.55309	-1.9497	0.99267	-6.2433	-0.0592	0.0182	-0.0073	-0.0462	0.0165	0.9585
55.1863	23.2102	773.143	60.8708	-247.6183	-56.2372	869.6792	-0.4157	-6.6303	-0.4821	-2.6316	0.73395	-8.5006	-0.0592	0.0182	-0.0073	-0.0462	0.0165	0.9585
55.1997	26.1146	774.7772	61.0417	-247.7037	-55.1596	867.8134	0.34694	-7.8985	-0.26579	-3.1242	0.1247	-10.1718	-0.0592	0.0182	-0.0073	-0.0462	0.0165	0.9585
55.2131	28.9147	774.2286	61.2869	-247.0324	-54.2383	863.6847	1.7165	-8.0068	0.16837	-3.1403	-0.99474	-10.3532	-0.0592	0.0182	-0.0073	-0.0462	0.0165	0.9585
55.2266	31.5202	771.2757	61.6273	-245.5305	-53.5292	857.125	3.8349	-5.8947	0.8945	-2.2578	-2.771	-7.6697	-0.0592	0.0182	-0.0073	-0.0462	0.0165	0.9585
55.24	33.8943	765.8606	62.0547	-243.1842	-53.0395	848.1136	6.8039	-0.22012	1.975	0.061547	-5.3143	-0.38787	-0.0592	0.0182	-0.0073	-0.0462	0.0165	0.9585
55.2534	36.0293	758.0229	62.5372	-240.0151	-52.7372	836.7335	10.5745	10.5779	3.4326	4.4419	-8.6217	13.5139	-0.0592	0.0182	-0.0073	-0.0462	0.0165	0.9585
55.2669	37.9668	747.7371	62.9721	-236.0318	-52.5006	822.9685	14.8459	28.0909	5.2092	11.5118	-12.4818	36.1002	-0.0592	0.0182	-0.0073	-0.0462	0.0165	0.9585
55.2803	39.7141	734.7922	63.2118	-231.1863	-52.164	806.6161	18.9527	53.493	7.1059	21.7284	-16.3577	68.8886	-0.0592	0.0182	-0.0073	-0.0462	0.0165	0.9585
55.2937	41.2589	718.7109	63.0252	-225.3524	-51.4848	787.1725	21.6602	86.9236	8.7297	35.126	-19.2508	112.0837	-0.0592	0.0182	-0.0073	-0.0462	0.0165	0.9585
55.3071	42.5118	698.7768	62.1669	-218.3331	-50.2274	763.8757	21.3125	126.7473	9.486	51.0207	-19.7527	163.5895	-0.0592	0.0182	-0.0073	-0.0462	0.0165	0.9585
55.3206	43.3488	674.254	60.3912	-209.9363	-48.1727	735.9299	16.8709	169.5323	8.5758	67.991	-16.4954	219.0277	-0.0592	0.0182	-0.0073	-0.0462	0.0165	0.9585
55.334	43.6826	644.697	57.5617	-200.0666	-45.2056	702.8244	9.5435	211.514	5.6126	84.4887	-9.5333	273.5095	-0.0592	0.0182	-0.0073	-0.0462	0.0165	0.9585
